PathFileType	4	(X/Y/Z)	Patient4_TMGait_0pt2_01_left_21.trc.trc
DataRate	CameraRate	NumFrames	NumMarkers	Units	OrigDataRate	OrigDataStartFrame	OrigNumFrames
45.751633986928	45.751633986928	5	33	mm	45.751633986928	89	       141
Frame#	Time	Sacral			L.Shoulder			Chest			R.Shoulder			Neck			R.ASIS			L.ASIS			R.Thigh.Superior			R.Thigh.Lateral			R.Thigh.Inferior			R.Patella			L.Thigh.Superior			L.Thigh.Lateral			L.Thigh.Inferior			L.Patella			L.Shank.Superior			L.Shank.Lateral			L.Shank.Inferior			R.Shank.Superior			R.Shank.Lateral			R.Shank.Inferior			R.Heel			R.Midfoot.Superior			R.Midfoot.Lateral			R.Toe			L.Heel			L.Midfoot.Lateral			L.Midfoot.Superior			L.Toe			L.Elbow			L.Wrist			R.Elbow			R.Wrist			
		X1	Y1	Z1	X2	Y2	Z2	X3	Y3	Z3	X4	Y4	Z4	X5	Y5	Z5	X6	Y6	Z6	X7	Y7	Z7	X8	Y8	Z8	X9	Y9	Z9	X10	Y10	Z10	X11	Y11	Z11	X12	Y12	Z12	X13	Y13	Z13	X14	Y14	Z14	X15	Y15	Z15	X16	Y16	Z16	X17	Y17	Z17	X18	Y18	Z18	X19	Y19	Z19	X20	Y20	Z20	X21	Y21	Z21	X22	Y22	Z22	X23	Y23	Z23	X24	Y24	Z24	X25	Y25	Z25	X26	Y26	Z26	X27	Y27	Z27	X28	Y28	Z28	X29	Y29	Z29	X30	Y30	Z30	X31	Y31	Z31	X32	Y32	Z32	X33	Y33	Z33	

89	50.213428571429	786.818166470305	1006.257913641378	483.914635402438	976.037132707818	1436.436729407040	330.439836263133	1049.594078449424	1373.001091172319	507.709273707064	935.518102155933	1443.713450274188	664.304615808472	928.007796397527	1499.132057147098	484.066915966531	1001.922737477842	946.511359043602	630.120608784704	1019.613162198683	964.993950056222	355.685286226516	1054.432992176916	747.875452789631	593.491902527080	978.140914499618	633.996525378263	651.109184308250	1056.504512689483	586.388383726267	569.292745697987	1061.058169351558	502.314203267643	573.791995584529	1019.812657352131	733.196158742995	377.303463738800	906.969872530973	635.722633137044	305.130161332270	966.056642133137	543.025540279357	369.381808194421	950.694127189471	472.677615217823	374.160897384623	907.719617637450	410.395913230100	362.264298325622	795.418617900101	320.933248499345	304.335811508490	818.392042453132	196.712532343577	369.700575597740	1041.848443979244	411.901701484594	582.911252488792	982.754685919430	304.596905941720	650.968744951291	1027.470498638477	211.595048116513	586.333196829284	900.605710468361	43.917747762603	570.872977018702	1074.802842165816	98.121908834470	591.460172448447	990.528594846101	37.999129771583	637.218342637386	1196.542873563697	45.239240917044	607.817589801083	660.979825822580	59.878806880482	398.570329899711	739.767570787927	46.552528152191	324.840227445557	827.473591482312	99.582011088048	354.982419386448	950.001720165642	37.703690234025	336.398291239188	1121.228216018835	1145.131308109435	174.080329443860	1380.935538673896	1133.167466829103	186.085976099544	799.919523881058	1123.036158136487	759.022421864928	792.618540961788	861.084184006351	763.964479098183	
90	50.235285714286	788.356112283631	1006.928420265154	490.114457198606	975.716937819140	1436.663173214688	333.882696831794	1051.232710016231	1373.803379157974	510.528790342198	938.676007872469	1444.714248717073	668.142984938675	929.374071032245	1499.791836537764	487.731425355676	1004.544098459294	947.066169253370	634.475340359270	1020.022138756120	965.559357675823	359.972455802333	1055.155016666217	747.552356980292	597.206678743538	977.874671836190	633.990641211831	654.558176189050	1055.540292664554	586.006332750049	572.412029796595	1059.233226115882	501.903585677227	576.305143672486	1021.314387867486	734.025564772230	380.477965597718	908.665745441222	636.354899158107	308.464714516990	969.357709459194	543.306329882743	371.298380103694	954.431249290234	472.041760218696	375.078712376976	909.553457832659	410.460672399041	363.419161263692	795.150022093743	323.322042723876	305.946027070405	817.102993161233	197.993109340517	369.617289954009	1039.551819618254	411.601344964036	584.953800590655	979.885591941701	304.231396202430	652.413723132248	1023.940273562552	211.384425115424	587.165281649575	896.261098185318	43.909678146552	570.928509828314	1070.494147080208	98.103449623752	591.584552739972	986.173523308841	37.986422908017	637.265757471330	1192.224700306139	45.108105403770	607.886554019630	657.656445218134	63.489558569129	398.402684980993	736.103864094987	48.221704894620	324.744011117587	824.815739858631	99.997520002045	354.397343683998	945.903567165970	37.497254104990	336.305963309376	1115.744517035184	1141.600654104873	177.953607671681	1375.232979261353	1123.894323796178	188.538957151366	807.005836699738	1122.624908255251	765.748906827606	802.337584146480	860.756393013531	772.002782651915	
91	50.257142857143	789.593414323056	1007.448570674479	496.219088597747	975.093535390234	1436.819649664941	337.351082451036	1052.561920996249	1374.477212023393	513.338736311203	941.496549326927	1445.501198281396	671.971117755144	930.440717666919	1500.313409030964	491.415895460125	1006.935896698523	947.453487701177	638.782470499469	1020.186818277422	966.046365958497	364.257409929335	1055.821397661769	747.174469020028	600.870787634996	977.621274193090	633.883202535822	657.960827513138	1054.658592401892	585.591299150879	575.522058963610	1057.522420637258	501.410213052765	578.859268090286	1023.125062220464	734.850099592604	383.699595571569	911.110803417861	636.686958840712	311.774519348925	973.646547269063	543.459273456543	373.243796703760	959.230092079999	471.173332407022	375.936361766911	912.326692692599	410.290162797894	364.565726499204	795.759426828169	325.763527862738	307.509491870390	816.314917725355	199.394308288232	369.559789853613	1037.322461637081	411.205814263233	587.031523337138	977.004610602372	303.793295228044	653.886814433390	1020.403882888364	211.106789641305	588.040622731078	891.843334266310	43.853020722349	570.987888479300	1066.111249476363	98.078299627433	591.718373220963	981.754920156451	37.938579382874	637.317921544638	1187.834926520161	45.057530921730	607.936555658750	654.544340066272	67.788045316928	398.194608532886	732.518610235671	50.303103490460	324.636536273248	822.348382348804	100.518749496041	353.803913603745	941.664457420416	37.277144504102	336.310641283220	1109.275531178807	1137.719657727023	181.941872962686	1368.405029953008	1113.646324054529	190.940755987483	814.468331494118	1121.658575394721	772.328632093165	812.889866659294	859.898178841494	779.799248430261	
92	50.279000000000	790.514833966924	1007.789810675339	502.245881155537	974.177465481639	1436.888760945476	340.857891068471	1053.590155046507	1374.980830343167	516.142489367850	944.003976765121	1446.026886631151	675.800430892663	931.218866867963	1500.667575944220	495.141148669025	1009.111344904948	947.661950207026	643.010499813915	1020.071258763198	966.436968192196	368.501154776794	1056.500973509519	746.756168672526	604.428316134930	977.517913165216	633.666868900915	661.291460431259	1053.983948718103	585.147247031582	578.565535564867	1056.089512990730	500.816088263200	581.404076272032	1025.310250702433	735.698701968923	386.956675185584	914.450248590312	636.708897072295	315.035977913420	979.090558613563	543.524658468449	375.230803210519	965.267994526583	470.112700866730	376.758659798821	916.232703195367	409.901289215746	365.722151842367	797.445712874812	328.342102008162	309.008830793383	816.139526136448	201.030214483981	369.551663422398	1035.288752464697	410.697759653553	589.098792248961	974.246331660410	303.287892995989	655.379497003416	1016.929237982384	210.749318748157	588.929989159046	887.368357018352	43.758303567699	571.057355965038	1061.675755488595	98.040779519610	591.859552289042	977.290120411138	37.864592904189	637.382619124962	1183.395907656840	45.064074959144	607.974743438502	651.721080761310	73.077393044891	397.942308231868	729.052923139399	53.043048037354	324.528092837628	820.118907948441	101.275255334319	353.235141316380	937.238480692556	37.002341414144	336.442076884094	1101.789529889264	1133.477459730967	186.122576151511	1360.363207048428	1102.321588304895	193.373731612597	822.385635418414	1120.090846829619	778.731673545912	824.422890675187	858.474181482864	787.299064155089	
93	50.300857142857	791.111408413236	1007.918286146997	508.217877388754	972.973375113925	1436.844379509445	344.407344521579	1054.332646984664	1375.266510483277	518.929726774051	946.250479224547	1446.248557754024	679.636297560183	931.729190314063	1500.823988892548	498.921733175891	1011.079678275619	947.678244171598	647.116885758785	1019.634983227758	966.713160331836	372.651086761713	1057.250558736783	746.306761320813	607.822797068940	977.685547816949	633.329900425831	664.518917513826	1053.627087302776	584.675359939913	581.482656849231	1055.086399199109	500.102177393090	583.886119648059	1027.928153297597	736.622261381766	390.234392071943	918.825613765836	636.438674079514	318.219828991052	985.843955607430	543.574530165773	377.270983643188	972.716655176235	468.932554726403	377.574853545681	921.459791327281	409.337166529903	366.906637899795	800.405158421254	331.164916872102	310.428524754966	816.691192168634	203.037257175473	369.614673580087	1033.566669995938	410.059834139879	591.107103422208	971.730087717516	302.719668491340	656.872173699211	1013.577587331918	210.301990763049	589.803102069182	882.853954508832	43.638162373178	571.141359047801	1057.210341214086	97.988089624903	592.006394724815	972.798604567007	37.773598338017	637.464739640130	1178.930104462467	45.103931319289	608.007741900246	649.283855238195	79.674956026476	397.646705909888	725.769866523163	56.716142081583	324.428484557934	818.188827978585	102.429609954922	352.725431829480	932.601498460144	36.635302981831	336.719015060934	1093.269016875134	1128.874206868978	190.566994988979	1351.008426495891	1089.806158389034	195.932817332083	830.834778602601	1117.909913485079	784.935988918373	837.081009744791	856.491166931740	794.451497742531	
